<svg width="192" height="188" viewBox="0 0 192 188" fill="none" xmlns="http://www.w3.org/2000/svg">
<line x1="60.5" y1="184.997" x2="61.5" y2="0.997286" stroke="black"/>
<line x1="133.5" y1="185.003" x2="132.5" y2="1.00272" stroke="black"/>
<line x1="187" y1="58.5" x2="3" y2="58.5" stroke="black"/>
<line x1="187" y1="127.5" x2="3" y2="127.5" stroke="black"/>
<path d="M16.3478 19.9751V13.6364H46.2129V19.9751H35.0801V50H27.4806V19.9751H16.3478Z" fill="black"/>
<path d="M16.3478 88.9751V82.6364H46.2129V88.9751H35.0801V119H27.4806V88.9751H16.3478Z" fill="black"/>
<path d="M16.3478 145.975V139.636H46.2129V145.975H35.0801V176H27.4806V145.975H16.3478Z" fill="black"/>
<path d="M101.993 13.6364V50H94.305V13.6364H101.993Z" fill="black"/>
<path d="M89.0005 119H80.7619L93.3152 82.6364H103.223L115.758 119H107.52L98.411 90.946H98.127L89.0005 119ZM88.4856 104.707H107.946V110.708H88.4856V104.707Z" fill="black"/>
<path d="M116.149 157.818C116.149 161.784 115.397 165.157 113.894 167.939C112.403 170.721 110.367 172.845 107.786 174.313C105.217 175.769 102.329 176.497 99.1213 176.497C95.8897 176.497 92.9896 175.763 90.421 174.295C87.8523 172.828 85.8223 170.703 84.3308 167.921C82.8393 165.139 82.0936 161.772 82.0936 157.818C82.0936 153.853 82.8393 150.479 84.3308 147.697C85.8223 144.916 87.8523 142.797 90.421 141.341C92.9896 139.873 95.8897 139.139 99.1213 139.139C102.329 139.139 105.217 139.873 107.786 141.341C110.367 142.797 112.403 144.916 113.894 147.697C115.397 150.479 116.149 153.853 116.149 157.818ZM108.354 157.818C108.354 155.25 107.97 153.083 107.2 151.32C106.443 149.556 105.371 148.218 103.986 147.307C102.601 146.395 100.98 145.94 99.1213 145.94C97.2628 145.94 95.6412 146.395 94.2562 147.307C92.8713 148.218 91.7941 149.556 91.0247 151.32C90.2671 153.083 89.8883 155.25 89.8883 157.818C89.8883 160.387 90.2671 162.553 91.0247 164.317C91.7941 166.08 92.8713 167.418 94.2562 168.33C95.6412 169.241 97.2628 169.697 99.1213 169.697C100.98 169.697 102.601 169.241 103.986 168.33C105.371 167.418 106.443 166.08 107.2 164.317C107.97 162.553 108.354 160.387 108.354 157.818Z" fill="black"/>
<path d="M180.817 26.3672H173.04C172.898 25.361 172.608 24.4673 172.17 23.6861C171.732 22.893 171.17 22.2183 170.483 21.6619C169.797 21.1056 169.004 20.6794 168.104 20.3835C167.216 20.0876 166.252 19.9396 165.21 19.9396C163.328 19.9396 161.689 20.4072 160.292 21.3423C158.895 22.2656 157.812 23.6151 157.042 25.3906C156.273 27.1544 155.888 29.2969 155.888 31.8182C155.888 34.4105 156.273 36.5885 157.042 38.3523C157.824 40.116 158.913 41.4477 160.309 42.3473C161.706 43.2469 163.322 43.6967 165.157 43.6967C166.187 43.6967 167.14 43.5606 168.015 43.2884C168.903 43.0161 169.69 42.6196 170.377 42.0987C171.064 41.5661 171.632 40.9209 172.081 40.1634C172.543 39.4058 172.863 38.5417 173.04 37.571L180.817 37.6065C180.616 39.2756 180.113 40.8854 179.308 42.4361C178.515 43.9749 177.444 45.3539 176.094 46.5732C174.757 47.7805 173.159 48.7393 171.3 49.4496C169.454 50.148 167.364 50.4972 165.032 50.4972C161.789 50.4972 158.889 49.7633 156.332 48.2955C153.787 46.8277 151.775 44.7029 150.295 41.9212C148.827 39.1394 148.094 35.7718 148.094 31.8182C148.094 27.8527 148.839 24.4792 150.331 21.6974C151.822 18.9157 153.846 16.7969 156.403 15.3409C158.96 13.8731 161.836 13.1392 165.032 13.1392C167.14 13.1392 169.093 13.4351 170.892 14.027C172.703 14.6188 174.307 15.483 175.704 16.6193C177.1 17.7438 178.237 19.1229 179.113 20.7564C180.001 22.3899 180.569 24.2602 180.817 26.3672Z" fill="black"/>
<path d="M180.817 95.3672H173.04C172.898 94.361 172.608 93.4673 172.17 92.6861C171.732 91.893 171.17 91.2183 170.483 90.6619C169.797 90.1056 169.004 89.6794 168.104 89.3835C167.216 89.0876 166.252 88.9396 165.21 88.9396C163.328 88.9396 161.689 89.4072 160.292 90.3423C158.895 91.2656 157.812 92.6151 157.042 94.3906C156.273 96.1544 155.888 98.2969 155.888 100.818C155.888 103.411 156.273 105.589 157.042 107.352C157.824 109.116 158.913 110.448 160.309 111.347C161.706 112.247 163.322 112.697 165.157 112.697C166.187 112.697 167.14 112.561 168.015 112.288C168.903 112.016 169.69 111.62 170.377 111.099C171.064 110.566 171.632 109.921 172.081 109.163C172.543 108.406 172.863 107.542 173.04 106.571L180.817 106.607C180.616 108.276 180.113 109.885 179.308 111.436C178.515 112.975 177.444 114.354 176.094 115.573C174.757 116.781 173.159 117.739 171.3 118.45C169.454 119.148 167.364 119.497 165.032 119.497C161.789 119.497 158.889 118.763 156.332 117.295C153.787 115.828 151.775 113.703 150.295 110.921C148.827 108.139 148.094 104.772 148.094 100.818C148.094 96.8527 148.839 93.4792 150.331 90.6974C151.822 87.9157 153.846 85.7969 156.403 84.3409C158.96 82.8731 161.836 82.1392 165.032 82.1392C167.14 82.1392 169.093 82.4351 170.892 83.027C172.703 83.6188 174.307 84.483 175.704 85.6193C177.1 86.7438 178.237 88.1229 179.113 89.7564C180.001 91.3899 180.569 93.2602 180.817 95.3672Z" fill="black"/>
<path d="M148.733 176V139.636H173.236V145.975H156.421V154.64H171.975V160.979H156.421V169.661H173.307V176H148.733Z" fill="black"/>
<line x1="190.954" y1="186.075" x2="1.95365" y2="2.07478" stroke="black" stroke-width="3"/>
</svg>
